<svg width="22" height="21" viewBox="0 0 22 21" fill="none" xmlns="http://www.w3.org/2000/svg">
<path fill-rule="evenodd" clip-rule="evenodd" d="M20.7068 18.7179L14.3988 12.3808C15.5305 10.7747 16.0176 8.80205 15.7636 6.85372C15.5097 4.90539 14.5331 3.12356 13.0274 1.86123C11.5218 0.598893 9.59689 -0.0518366 7.63413 0.037985C5.67137 0.127807 3.81398 0.951575 2.42991 2.34615C1.04584 3.74073 0.236082 5.60433 0.161108 7.56771C0.086134 9.53109 0.751405 11.451 2.02509 12.9471C3.29878 14.4432 5.08796 15.4062 7.03815 15.6455C8.98835 15.8847 10.9572 15.3827 12.5548 14.2389L18.8628 20.5769C18.9842 20.7008 19.129 20.7994 19.2888 20.867C19.4486 20.9345 19.6202 20.9695 19.7937 20.9701C19.9672 20.9707 20.1391 20.9368 20.2993 20.8704C20.4596 20.804 20.6051 20.7064 20.7273 20.5832C20.8495 20.4601 20.946 20.3139 21.0112 20.1531C21.0764 19.9923 21.109 19.8202 21.1071 19.6467C21.1052 19.4733 21.0688 19.3019 21.0001 19.1426C20.9314 18.9833 20.8317 18.8393 20.7068 18.7188V18.7179ZM8.0178 13.0758C6.97685 13.0816 5.95762 12.7781 5.0893 12.204C4.22098 11.6299 3.54267 10.8109 3.14033 9.85079C2.73799 8.89072 2.62973 7.83278 2.82929 6.81112C3.02885 5.78946 3.52723 4.85007 4.26127 4.11196C4.9953 3.37385 5.93195 2.87026 6.95249 2.66506C7.97303 2.45986 9.03153 2.56229 9.99381 2.95931C10.9561 3.35633 11.7788 4.0301 12.3578 4.89522C12.9367 5.76035 13.2458 6.77784 13.2458 7.81881C13.2458 9.20804 12.6959 10.5409 11.7163 11.5259C10.7367 12.5109 9.40701 13.0682 8.0178 13.0758Z" fill="#22262A"/>
</svg>
